<?xml version="1.0" encoding="utf-8"?>
<!-- Generator: Adobe Illustrator 22.0.1, SVG Export Plug-In . SVG Version: 6.00 Build 0)  -->
<svg version="1.1" id="Layer_1" xmlns="http://www.w3.org/2000/svg" xmlns:xlink="http://www.w3.org/1999/xlink" x="0px" y="0px"
	 viewBox="0 0 512 188.9" style="enable-background:new 0 0 512 188.9;" xml:space="preserve">
<style type="text/css">
	.blue{fill:#ffffff;}<!-- 00A6E1 -->
	.green{fill:#ffffff;}<!-- 6DBE4A -->
</style>
<title>cfp-logo</title>
<polygon class="blue" points="94.4,0 0,94.4 0,0 "/>
<polygon class="blue" points="0,94.4 94.4,188.9 0,188.9 "/>
<polygon class="blue" points="94.4,188.9 188.9,94.4 188.9,188.9 "/>
<polygon class="green" points="188.9,0 188.9,94.4 157.5,63.1 94.8,126.2 63.1,94.4 126.2,31.7 94.4,0 "/>
<path class="green" d="M261.1,64.8c-1,4.4-2.9,7.7-5.8,10.1c-2.9,2.3-6.4,3.5-10.3,3.5c-3.6-0.1-6.6-1-9-2.7c-2.5-1.7-4.2-3.6-5.3-5.8
	c-0.3-0.7-0.6-1.4-0.9-2c-0.3-0.8-0.5-1.7-0.6-2.5c-0.3-1.9-0.5-5.6-0.5-11c0-5.5,0.2-9.2,0.5-11c0.2-1.6,0.8-3.1,1.5-4.5
	c1.1-2.2,2.9-4.1,5.3-5.8c2.4-1.7,5.4-2.6,9-2.7c4.4,0,8,1.4,10.8,4.1c2.8,2.7,4.6,6.1,5.3,9.9h-7.4c-0.6-1.9-1.6-3.6-3.1-4.9
	c-1.6-1.3-3.6-2-5.7-2c-1.5,0-2.9,0.3-4.2,1c-1.1,0.6-2.1,1.4-2.9,2.4c-0.9,1.1-1.6,2.5-1.8,3.9c-0.3,1.7-0.5,4.9-0.5,9.5
	s0.2,7.8,0.5,9.5c0.2,1.5,0.8,2.9,1.8,4c0.8,1,1.8,1.8,2.9,2.4c1.3,0.7,2.7,1.1,4.2,1.1c3.9,0,6.8-2.2,8.7-6.5L261.1,64.8z"/>
<path class="green" d="M265.6,54.4c0-5.5,0.2-9.2,0.5-11c0.2-1.6,0.8-3.1,1.5-4.5c1.1-2.2,2.9-4.1,5.3-5.8c2.4-1.7,5.4-2.6,9-2.6
	c3.6,0,6.7,0.9,9.1,2.7c2.4,1.7,4.2,3.7,5.2,5.8c0.9,1.4,1.4,2.9,1.6,4.5c0.3,1.9,0.4,5.5,0.4,11c0,5.4-0.1,9.1-0.4,11
	c-0.3,1.9-0.8,3.4-1.6,4.6c-1.1,2.2-2.8,4.1-5.2,5.8c-2.4,1.7-5.5,2.6-9.1,2.7c-3.6-0.1-6.6-1-9-2.7c-2.5-1.7-4.2-3.6-5.3-5.8
	c-0.3-0.7-0.6-1.4-0.9-2c-0.3-0.8-0.5-1.7-0.6-2.5C265.7,63.5,265.6,59.8,265.6,54.4z M272.5,54.4c0,4.7,0.2,7.8,0.5,9.5
	c0.2,1.5,0.8,2.9,1.8,4c0.8,1,1.8,1.8,2.9,2.4c1.3,0.7,2.7,1.1,4.2,1.1c1.5,0,3-0.3,4.3-1.1c1.1-0.6,2-1.4,2.8-2.4
	c1-1.1,1.6-2.5,1.8-4c0.3-1.6,0.5-4.8,0.5-9.5s-0.2-7.8-0.5-9.5c-0.3-1.4-0.9-2.8-1.8-3.9c-0.7-1-1.7-1.8-2.8-2.4
	c-1.3-0.7-2.8-1-4.3-1c-1.5,0-2.9,0.3-4.2,1c-1.1,0.6-2.1,1.4-2.9,2.4c-0.9,1.1-1.6,2.5-1.8,3.9C272.7,46.6,272.5,49.8,272.5,54.4
	L272.5,54.4z"/>
<path class="green" d="M307.6,30.8h16c6.2,0,10.8,2.7,13.9,8c1.1,1.7,1.8,3.6,2.1,5.6c0.2,1.9,0.3,5.3,0.3,10.1
	c0,5.1-0.2,8.6-0.5,10.6c-0.1,0.9-0.4,1.8-0.7,2.7c-0.4,0.8-0.8,1.6-1.3,2.4c-1.4,2.3-3.3,4.2-5.6,5.5c-2.4,1.6-5.3,2.3-8.7,2.3
	h-15.6V30.8z M314.6,71.3h8.3c3.9,0,6.7-1.4,8.5-4.1c0.8-1.1,1.3-2.5,1.5-3.9c0.2-1.5,0.3-4.4,0.3-8.6c0-4.1-0.1-7.1-0.3-8.8
	c-0.2-1.6-0.8-3.1-1.8-4.3c-1.9-2.7-4.7-4.1-8.2-4h-8.3L314.6,71.3z"/>
<path class="green" d="M349.5,30.8h29.2v6.7h-22.3V51h19v6.3h-19v13.9h22.3V78h-29.2V30.8z"/>
<path class="green" d="M402.3,30.8h29.2v6.7h-22.3v14h19.1v6.3h-19.1V78h-6.9V30.8z"/>
<path class="green" d="M436.4,54.4c0-5.5,0.2-9.2,0.5-11c0.2-1.6,0.8-3.1,1.5-4.5c1.1-2.2,2.9-4.1,5.3-5.8c2.4-1.7,5.4-2.6,9-2.6
	c3.6,0,6.7,0.9,9.1,2.7s4.2,3.7,5.2,5.8c0.9,1.4,1.4,2.9,1.6,4.5c0.3,1.9,0.4,5.5,0.4,11c0,5.4-0.1,9.1-0.4,11
	c-0.2,1.6-0.7,3.2-1.6,4.6c-1.1,2.2-2.8,4.1-5.2,5.8c-2.4,1.7-5.5,2.6-9.1,2.7c-3.6-0.1-6.6-1-9-2.7c-2.5-1.7-4.2-3.6-5.3-5.8
	c-0.3-0.7-0.6-1.4-0.9-2c-0.3-0.8-0.5-1.7-0.6-2.5C436.6,63.5,436.4,59.8,436.4,54.4z M443.3,54.4c0,4.7,0.2,7.8,0.5,9.5
	c0.2,1.5,0.8,2.9,1.8,4c0.8,1,1.8,1.8,2.9,2.4c1.3,0.7,2.7,1.1,4.2,1.1c1.5,0,3-0.3,4.3-1.1c1.1-0.6,2-1.4,2.8-2.4
	c1-1.1,1.6-2.5,1.8-4c0.3-1.6,0.5-4.8,0.5-9.5c0-4.7-0.2-7.8-0.5-9.5c-0.3-1.4-0.9-2.8-1.8-3.9c-0.7-1-1.7-1.8-2.8-2.4
	c-1.3-0.7-2.8-1-4.3-1c-1.5,0-2.9,0.3-4.2,1c-1.1,0.6-2.1,1.4-2.9,2.4c-1,1.1-1.6,2.5-1.8,3.9C443.5,46.6,443.3,49.8,443.3,54.4z"/>
<path class="green" d="M478.5,30.8h17.9c3.8,0,6.9,1,9.3,3.1c2.9,2.4,4.4,5.7,4.5,10.1c-0.1,6.4-3,10.8-8.9,13.1L512,78h-8.2
	l-9.5-20.2h-8.9V78h-6.9L478.5,30.8z M485.4,51.5h10.5c2.6,0,4.6-0.8,5.9-2.3c1.3-1.4,2-3.3,1.9-5.2c0-2.5-0.8-4.2-2.3-5.4
	c-1.2-1-2.9-1.5-5.1-1.5h-10.9V51.5z"/>
<path class="blue" d="M230.2,110.5h16.6c1.8,0,3.5,0.2,5.2,0.5c1.9,0.6,3.6,1.5,5.1,2.8c1.5,1.2,2.8,2.7,3.5,4.5
	c1,2.1,1.5,4.4,1.4,6.8c0,3.5-1.2,6.7-3.6,9.6c-2.5,3-6,4.6-10.8,4.7h-10.6v18.4h-6.9V110.5z M237.1,132.5h10.3
	c2.6,0,4.5-0.9,5.8-2.5c1.2-1.5,1.9-3.3,1.8-5.2c0-1.4-0.2-2.7-0.8-4c-0.5-1-1.3-1.8-2.2-2.3c-1.5-0.9-3.2-1.4-5-1.3h-10
	L237.1,132.5z"/>
<path class="blue" d="M288.1,147.1h-17.3l-3.5,10.6h-7.4l16.6-47.3h5.8l16.6,47.3h-7.3L288.1,147.1z M286.1,140.8l-6.6-20.7h-0.1
	l-6.6,20.7H286.1z"/>
<path class="blue" d="M305.1,110.5h6.9v24.3h0.1l18.8-24.3h8.2l-14.7,18.7l16.2,28.6h-8.2l-12.5-23.1l-8,8.7v14.4h-6.9V110.5z"/>
<path class="blue" d="M347,110.5h6.9v47.3H347V110.5z"/>
<path class="blue" d="M364.6,146.3c3.6,3.1,8,4.7,13,4.7c6-0.1,9-2.3,9-6.6c0-3.5-1.9-5.6-6-6.4c-1.8-0.3-3.9-0.5-6.1-0.9
	c-3.9-0.7-6.9-2.2-9-4.5c-2.1-2.4-3.2-5.3-3.2-8.8c0-4.1,1.3-7.5,4-10c2.6-2.5,6.2-3.8,10.9-3.8c5.7,0.1,10.6,1.8,14.8,4.9l-3.9,5.9
	c-3.3-2.3-7.3-3.6-11.3-3.6c-2.1,0-3.9,0.6-5.3,1.7c-1.5,1.1-2.2,2.9-2.3,5.1c0,1.4,0.6,2.7,1.5,3.7c1,1.1,2.7,1.9,4.9,2.3
	c1.3,0.2,3,0.5,5.2,0.7c4.3,0.6,7.5,2.2,9.5,4.8c2,2.5,3.1,5.6,3,8.8c-0.2,9-5.6,13.6-16.1,13.8c-6.8,0-12.6-2.2-17.5-6.5
	L364.6,146.3z"/>
<path class="blue" d="M410,116.8h-12.5v-6.4h32v6.4h-12.5v40.9H410L410,116.8z"/>
<path class="blue" d="M453.9,147.1h-17.4l-3.5,10.6h-7.3l16.6-47.3h5.8l16.7,47.3h-7.3L453.9,147.1z M451.9,140.8l-6.6-20.7h-0.1
	l-6.6,20.7H451.9z"/>
<path class="blue" d="M470.9,110.5h6.5l20.7,33.6h0.1v-33.6h6.9v47.3h-6.6L478,124.1h-0.1v33.6h-6.9L470.9,110.5z"/>
</svg>
